<?xml version="1.0" standalone="no"?>
<!DOCTYPE svg PUBLIC "-//W3C//DTD SVG 20010904//EN"
 "http://www.w3.org/TR/2001/REC-SVG-20010904/DTD/svg10.dtd">
<svg version="1.0" xmlns="http://www.w3.org/2000/svg"
 width="600.000000pt" height="576.000000pt" viewBox="0 0 600.000000 576.000000"
 preserveAspectRatio="xMidYMid meet">
<metadata>
Created by potrace 1.15, written by Peter Selinger 2001-2017
</metadata>
<g transform="translate(0.000000,576.000000) scale(0.100000,-0.100000)"
fill="#000000" stroke="none">
<path d="M2425 5743 c-122 -44 -214 -127 -268 -241 -30 -64 -32 -73 -32 -187
0 -114 2 -123 32 -188 44 -93 119 -169 212 -215 74 -37 77 -37 195 -37 115 0
124 2 188 32 113 53 200 148 239 261 30 82 29 216 -1 297 -44 117 -126 205
-238 258 -60 28 -78 32 -172 34 -81 3 -116 -1 -155 -14z"/>
<path d="M3131 4939 c-29 -4 -73 -15 -97 -24 -58 -22 -1509 -1152 -1541 -1201
-38 -56 -55 -114 -55 -191 0 -117 58 -220 148 -263 55 -25 161 -36 223 -22 40
10 47 8 95 -21 28 -17 52 -31 54 -33 7 -4 -399 -879 -406 -877 -164 38 -228
46 -372 47 -167 1 -259 -13 -400 -60 -382 -128 -679 -465 -760 -863 -25 -122
-27 -322 -5 -438 30 -156 101 -328 188 -458 58 -86 206 -235 290 -293 148
-102 338 -178 505 -202 131 -19 355 -8 475 23 737 194 1104 1011 756 1687 -27
52 -71 125 -99 162 -63 83 -195 208 -281 265 l-66 44 101 220 c55 120 103 219
106 219 3 0 169 -250 370 -557 l365 -556 17 -111 c12 -86 14 -126 6 -176 -13
-87 -2 -166 32 -237 47 -98 112 -151 220 -179 176 -45 332 25 403 179 l22 47
107 0 107 0 6 -37 c51 -312 149 -515 339 -706 163 -162 375 -271 610 -312 112
-19 327 -20 438 0 299 52 581 232 761 486 66 94 143 260 174 376 31 119 43
352 24 485 -14 96 -66 259 -112 350 -174 345 -513 586 -897 638 -194 27 -439
-4 -620 -78 l-73 -30 -33 51 c-18 29 -83 132 -145 231 l-111 179 46 81 c25 44
57 105 72 134 14 28 30 52 34 52 30 0 126 49 166 85 63 57 92 124 99 225 6 88
-7 163 -43 233 -43 86 -930 1332 -970 1362 -72 55 -172 78 -273 64z m315
-1411 l102 -146 -281 -125 c-155 -68 -320 -139 -367 -157 -115 -44 -193 -84
-232 -119 l-33 -29 -245 28 c-135 16 -246 29 -247 29 -1 1 18 44 42 97 25 53
45 111 45 128 0 47 -40 98 -105 133 l-57 30 473 376 472 375 165 -236 c91
-131 211 -303 268 -384z m-1068 -773 c79 -7 145 -15 147 -17 2 -2 25 -127 50
-278 25 -151 48 -286 51 -300 4 -19 -238 333 -400 583 -22 32 -36 31 152 12z
m1169 -132 l141 -17 -191 -383 c-106 -211 -194 -383 -197 -383 -6 0 -133 710
-128 715 12 12 188 83 208 84 14 1 89 -6 167 -16z m435 -325 c52 -84 98 -158
101 -164 4 -7 -36 -55 -91 -110 -115 -118 -185 -217 -253 -358 -50 -105 -99
-269 -99 -332 l0 -34 -104 0 -103 0 -7 32 c-4 18 -20 50 -36 70 l-31 37 262
506 c144 278 263 505 264 505 2 0 45 -69 97 -152z m-2596 -193 c42 -8 78 -16
80 -17 1 -2 -59 -140 -135 -308 -138 -304 -138 -305 -172 -311 -19 -3 -58 -18
-88 -34 -110 -60 -168 -166 -159 -289 12 -148 119 -253 268 -264 89 -6 154 16
218 73 108 97 129 256 51 380 l-31 48 128 301 c70 166 129 303 131 306 6 7 65
-28 125 -76 162 -128 303 -376 338 -597 16 -97 8 -288 -16 -377 -90 -342 -358
-607 -700 -692 -117 -29 -313 -31 -424 -5 -403 97 -691 419 -740 830 -20 167
8 328 86 496 58 123 113 199 221 301 131 125 300 212 463 239 88 14 271 12
356 -4z m3619 -4 c291 -60 545 -262 671 -535 64 -141 79 -212 79 -391 0 -171
-9 -221 -62 -353 -111 -280 -352 -491 -648 -568 -81 -21 -124 -26 -225 -27
-255 -1 -467 84 -654 263 -97 93 -153 170 -211 292 -38 80 -85 232 -85 276 0
9 73 12 333 12 l332 0 13 -29 c33 -75 137 -143 237 -155 90 -12 199 30 258 98
90 103 90 281 0 385 -47 55 -122 92 -199 99 l-60 4 -177 278 c-97 153 -177
282 -177 288 0 17 130 61 220 75 76 12 271 5 355 -12z m-602 -471 c151 -238
172 -277 160 -291 -7 -8 -13 -21 -13 -27 0 -9 -87 -12 -340 -12 l-340 0 6 28
c48 219 126 374 255 504 43 44 83 78 88 77 6 -2 89 -128 184 -279z"/>
</g>
</svg>
