<?xml version="1.0" standalone="no"?>
<!DOCTYPE svg PUBLIC "-//W3C//DTD SVG 20010904//EN"
 "http://www.w3.org/TR/2001/REC-SVG-20010904/DTD/svg10.dtd">
<svg version="1.0" xmlns="http://www.w3.org/2000/svg"
 width="600.000000pt" height="1143.000000pt" viewBox="0 0 600.000000 1143.000000"
 preserveAspectRatio="xMidYMid meet">
<metadata>
Created by potrace 1.15, written by Peter Selinger 2001-2017
</metadata>
<g transform="translate(0.000000,1143.000000) scale(0.100000,-0.100000)"
fill="#000000" stroke="none">
<path d="M2330 11415 c-288 -64 -522 -247 -650 -510 -186 -378 -106 -818 201
-1111 110 -104 231 -173 386 -221 81 -24 102 -27 258 -27 143 0 182 3 247 22
344 95 608 371 685 715 25 107 22 328 -5 429 -92 343 -328 585 -672 690 -87
27 -353 35 -450 13z"/>
<path d="M2875 9154 c-11 -2 -51 -12 -90 -20 -199 -46 -369 -182 -461 -369
-89 -181 -124 -370 -124 -660 0 -184 2 -203 120 -1064 91 -669 130 -926 165
-1086 67 -306 86 -449 92 -683 8 -284 7 -287 -205 -449 -356 -272 -781 -662
-971 -892 -72 -87 -101 -165 -125 -337 -9 -60 -68 -776 -131 -1592 -128 -1651
-125 -1554 -59 -1691 64 -129 195 -235 357 -286 68 -22 97 -25 221 -25 165 0
258 19 359 72 126 67 223 202 246 345 7 37 45 642 87 1343 55 939 78 1287 89
1321 9 25 30 61 48 79 86 88 464 408 505 427 31 15 66 23 104 23 l56 0 549
622 c301 342 560 642 575 667 66 109 98 267 100 476 0 124 -14 277 -82 894
-52 471 -80 759 -76 786 12 76 78 154 154 181 53 19 130 17 178 -5 53 -24 109
-83 128 -135 9 -22 50 -218 91 -434 83 -429 106 -511 180 -622 82 -123 190
-199 340 -241 70 -19 96 -21 215 -16 189 7 286 43 374 137 84 90 116 186 116
350 l0 105 -145 490 c-181 606 -195 649 -272 808 -139 285 -301 482 -491 597
-32 19 -441 216 -908 438 -581 275 -876 409 -930 423 -58 16 -117 22 -219 25
-77 1 -149 1 -160 -2z"/>
<path d="M2114 7831 c-16 -16 -396 -311 -844 -656 -448 -345 -846 -657 -883
-694 -136 -131 -263 -309 -322 -450 -46 -110 -65 -204 -65 -320 0 -179 37
-279 135 -368 119 -108 258 -149 403 -121 44 9 108 29 143 44 41 19 296 201
728 521 366 271 682 500 701 510 56 27 145 23 209 -9 l53 -28 -6 28 c-3 15
-53 373 -111 796 -58 423 -107 771 -108 772 -2 2 -16 -10 -33 -25z"/>
<path d="M3728 4169 c-276 -314 -504 -575 -506 -580 -2 -4 15 -24 37 -44 25
-23 47 -56 59 -88 11 -29 214 -680 452 -1447 238 -767 444 -1421 458 -1455 48
-110 95 -179 181 -266 70 -71 101 -94 171 -127 132 -63 201 -77 370 -76 113 1
162 6 222 22 198 54 303 160 343 347 25 119 16 299 -21 450 -9 33 -292 903
-630 1933 -338 1030 -614 1879 -614 1887 0 8 -4 15 -9 15 -5 0 -236 -257 -513
-571z"/>
</g>
</svg>
