<svg xmlns="http://www.w3.org/2000/svg" viewBox="0 0 79.03 75.21"><defs><style>.cls-1{fill:#fce392;}</style></defs><title>Asset 9</title><g id="Layer_2" data-name="Layer 2"><g id="Layer_1-2" data-name="Layer 1"><polygon class="cls-1" points="21.96 47.34 4.29 30.14 28.64 26.53 39.51 4.52 50.38 26.58 74.72 30.06 57.17 47.21 61.35 71.52 39.51 60.07 17.77 71.54 21.96 47.34"/><path d="M39.5,9l9.55,19.37,21.38,3.06L55,46.52l3.67,21.35L39.5,57.81,20.44,67.87l3.67-21.23L8.58,31.52,30,28.36,39.5,9m0-9L35.92,7.27,27.31,24.71,8,27.57,0,28.75l5.79,5.64L19.81,48,16.5,67.19l-1.39,8,7.2-3.8,17.2-9.08,17.33,9.08L64,75.17l-1.37-8L59.32,47.91l13.9-13.58L79,28.66l-8-1.15L51.71,24.75,43.09,7.27,39.51,0Z"/></g></g></svg>