<svg xmlns="http://www.w3.org/2000/svg" viewBox="0 0 677.96 651.22"><title>Asset 2</title><g id="Layer_2" data-name="Layer 2"><g id="Layer_1-2" data-name="Layer 1"><path d="M388.28.25A50.33,50.33,0,1,1,338,50.58,50.33,50.33,0,0,1,388.28.25Z" transform="translate(-0.25 -0.25)"/><path d="M542.94,485.21c6.38.21,12.7,3.17,18.29,7.18A32.64,32.64,0,1,1,515.7,500a33.67,33.67,0,0,1,3.33-4.16L489,425.2C469.88,432.74,454.69,456,454.69,456A107.94,107.94,0,1,0,614.54,439s-36.82-41-103.47-24ZM241.68,529.64H165.52c-4.47,12.78-17.69,21.37-32,21.37a32.64,32.64,0,0,1,0-65.28,35,35,0,0,1,4.4.21l41.5-65.19c-17.31-11.12-45.07-9.83-45.07-9.83a107.94,107.94,0,0,0,0,215.88C189.9,626.8,235.72,583.61,241.68,529.64ZM193.89,399.1,227,346l-16.87-30.82c-22.06-4.7-29.11-19.3-30.65-32.73a51.44,51.44,0,0,1,9.4-35.51l100.41-142c24-23.68,52.55-5.19,52.55-5.19L506,227.86c18.49,22.39,4.54,42.83,4.54,42.83-12,22.7-41.83,12.91-41.83,12.91l-13,7.73,45.85,100.61c75.29-22.37,124.27,19.66,124.27,19.66,54.86,43,69.85,116.41,29.57,178a133.25,133.25,0,0,1-223-145.85,141,141,0,0,1,45.3-43.07l-24.19-52.42L369.61,476.35,366,502.47c3.85,18.41,0,27.48,0,27.48-8.8,28.87-37.93,26.94-37.93,26.94-28.59,1.38-36.21-27-36.21-27H267.73l-1.48-.14c-6.18,69.22-59.33,121.7-132.75,121.7a133.25,133.25,0,0,1,0-266.5A141.07,141.07,0,0,1,193.89,399.1Zm47.5,105.76c-.58-4.69-6.76-47.45-40.57-71l-40.76,64.85a8.24,8.24,0,0,1,4,6.55h12.64ZM446.17,267.78,337.59,181.41l-61.38,88,61.38,27.34S374,309,380,318.29l57.38-6.39-9.26-20.21S419.23,277.72,446.17,267.78ZM380,412.92l50.45-75.42L392,341Zm-74.16,33.92L321,362.25l-23.68-10.38-37,4.52Zm-6.3,42.2L239.29,372.66,214.67,412c50.86,41.85,52.21,92.46,52.21,92.46h24.55C291.08,495.61,299.58,489,299.58,489Z" transform="translate(-0.25 -0.25)"/></g></g></svg>