<?xml version="1.0" standalone="no"?>
<!DOCTYPE svg PUBLIC "-//W3C//DTD SVG 20010904//EN"
 "http://www.w3.org/TR/2001/REC-SVG-20010904/DTD/svg10.dtd">
<svg version="1.0" xmlns="http://www.w3.org/2000/svg"
 width="512.000000pt" height="512.000000pt" viewBox="0 0 512.000000 512.000000"
 preserveAspectRatio="xMidYMid meet">
<metadata>
Created by potrace 1.15, written by Peter Selinger 2001-2017
</metadata>
<g transform="translate(0.000000,512.000000) scale(0.100000,-0.100000)"
fill="#000000" stroke="none">
<path d="M87 5109 c-29 -17 -68 -60 -78 -86 -17 -45 -11 -115 14 -152 12 -19
27 -42 32 -50 6 -9 136 -205 290 -435 154 -230 285 -425 290 -434 6 -9 33 -49
60 -90 28 -41 55 -82 60 -91 6 -9 136 -204 290 -435 154 -230 285 -426 290
-435 6 -9 59 -90 118 -179 l108 -162 -108 -162 c-59 -89 -112 -170 -118 -179
-5 -9 -136 -205 -290 -435 -154 -231 -284 -426 -290 -435 -5 -9 -32 -50 -60
-91 -27 -41 -54 -81 -60 -90 -5 -9 -136 -204 -290 -434 -154 -230 -284 -426
-290 -435 -5 -8 -20 -31 -33 -50 -19 -29 -23 -44 -19 -98 3 -61 5 -65 49 -107
44 -41 51 -44 101 -44 53 0 148 47 2473 1210 1331 665 2428 1218 2439 1227 42
36 55 66 55 123 0 57 -13 87 -55 123 -11 9 -1108 562 -2439 1227 -2283 1142
-2421 1210 -2470 1210 -28 0 -59 -5 -69 -11z m4493 -2549 c0 -3 -886 -449
-1969 -990 -1083 -542 -1967 -982 -1965 -978 2 3 290 435 639 958 l635 952 0
58 0 58 -635 952 c-349 523 -637 955 -639 958 -2 4 882 -436 1965 -978 1083
-541 1969 -987 1969 -990z"/>
</g>
</svg>
