<svg xmlns="http://www.w3.org/2000/svg" viewBox="0 0 1693.61 1378.71"><defs><style>.cls-1{fill:#afd9f4;}.cls-2{fill:#c9e5c7;}.cls-3{font-size:20px;}.cls-3,.cls-30{fill:#231f20;font-family:Lato-Black, Lato;}.cls-4{letter-spacing:-0.01em;}.cls-5{letter-spacing:0em;}.cls-6{letter-spacing:-0.03em;}.cls-7{letter-spacing:-0.07em;}.cls-8{letter-spacing:-0.02em;}.cls-9{letter-spacing:-0.02em;}.cls-10{letter-spacing:-0.01em;}.cls-11{letter-spacing:-0.03em;}.cls-12{letter-spacing:-0.01em;}.cls-13{letter-spacing:-0.02em;}.cls-14{letter-spacing:-0.03em;}.cls-15{fill:#fce392;}.cls-16{letter-spacing:-0.04em;}.cls-17{letter-spacing:-0.03em;}.cls-18{letter-spacing:-0.05em;}.cls-19{letter-spacing:0em;}.cls-20{letter-spacing:-0.02em;}.cls-21{letter-spacing:-0.02em;}.cls-22{letter-spacing:-0.01em;}.cls-23{letter-spacing:-0.03em;}.cls-24{letter-spacing:-0.01em;}.cls-25{letter-spacing:-0.01em;}.cls-26{letter-spacing:-0.03em;}.cls-27{letter-spacing:-0.04em;}.cls-28{letter-spacing:-0.04em;}.cls-29{letter-spacing:-0.05em;}.cls-30{font-size:47px;}.cls-31{letter-spacing:-0.01em;}.cls-32{letter-spacing:-0.01em;}.cls-33{letter-spacing:0em;}.cls-34{letter-spacing:-0.01em;}.cls-35{letter-spacing:0em;}.cls-36{letter-spacing:-0.02em;}</style></defs><title>Asset 2</title><g id="Layer_2" data-name="Layer 2"><g id="Layer_1-2" data-name="Layer 1"><rect class="cls-1" width="1689.12" height="1378.67"/><path class="cls-2" d="M133.65,1375s-51.06-49.77-42-66.57l6.46-37.49L33.46,1168.79l-29-17.45v-48.48l45.78-20.68,25.21-32,73.68-29.36,20,3.44,5.17,47,38.78,14.22L261,1113.85l57.53,5.17,27.8,31,6.46,37.49,27.79-.65,2.7-13.06,41.44-1.08,49.59,47.83,49.16,3.84L610,1259.2l-1.42,59.61,42.77,59.9Z"/><polygon class="cls-2" points="723.75 1378.71 723.75 1327.17 735.54 1320.1 735.54 1301.24 763.05 1247.79 785.26 1235.99 822.01 1288.66 822.01 1320.1 877.82 1315.38 859.74 1293.29 936.77 1288.66 986.01 1283.94 1041.31 1293.29 1104.98 1335.82 1109.7 1378.71 723.75 1378.71"/><path class="cls-2" d="M286.82.74,310,26.31l0,.05c.34.49,6,9,2.15,14,0,0-5.12,4.92,10,18.11L351.74,86s23.83,20.67,12,50h0s-17.12,63.37-18.5,79.14v0c0,.26.5,9.49,8.07,26.57l28.93,60.21a.64.64,0,0,0,0,.07l27.16,94.65v0l2.74,11.94a.22.22,0,0,1,0,.11L410,449.35a.83.83,0,0,1,0,.15L393.1,486.22l0,0c-.19.61-5,16.57,1.37,49.72a.28.28,0,0,1,0,.13c-.44,1.67-10.15,37.65-22.68,48.75,0,0-5.67,4.83-7.15,22.49v0l-4.4,28.69a.4.4,0,0,1-.09.2l-26,31.22-.05.06L304.7,692.12l-.06,0-77.59,44s-25.5,16-30.27,29.26h0s-4.34,16.26-11.92,20.16h0s-11.67,8.26,1.06,27.49a.13.13,0,0,0,.06.07c.73.62,14,12.23,10.37,39.43h0s-3.44,18.09.18,24.21a.24.24,0,0,0,.09.11c.69.56,7.63,7.35-7.86,42.67L167.38,967.9a.43.43,0,0,1-.25.23l-14.75,5a.42.42,0,0,0-.24.6l9.52,17.77,14.31,28v0l23.2,51.89a.45.45,0,0,0,.2.21l55.43,26.87.09,0,86.92,20.19a.5.5,0,0,1,.19.1l35.78,31.87a.42.42,0,0,0,.2.1l55.37,11.19a.4.4,0,0,1,.23.12l40.9,44.27.06,0,165.79,83.05c.09.06,50.42,30.3,50.53,30.28l10.77-26.38c.13,0,26.44-8.23,26.5-8.34l35.77-66.26c.12-.23,29.73,1.73,29.94,1.89L812.21,1236c.08.06,73.75,46.17,73.84,46.16l91.44-7.29a.41.41,0,0,0,.4-.36l10-73.3a.42.42,0,0,1,.55-.35l49.38,16.09a.5.5,0,0,1,.22.16l36.15,52.4a25.11,25.11,0,0,0,22,10.82l.36,0a37.12,37.12,0,0,0,13.79-3.4h0a21.29,21.29,0,0,0,11.86-23.63l-4.94-23.72a.42.42,0,0,1,.09-.36l54.25-62.08a.43.43,0,0,0,.11-.28v-54.67a.41.41,0,0,1,.18-.35l85.68-58.11a49.33,49.33,0,0,0,17.59-21.23l28.67-66.21a88.89,88.89,0,0,0-27.1-105.57L1271,856.3a53.18,53.18,0,0,0-27.74-10.94l-45.58-4.18a.45.45,0,0,1-.3-.16L1145.31,775a.35.35,0,0,1-.08-.16l-23.57-96v0l-27-150L1068.86,390.1a.64.64,0,0,1,0-.07l-23.54-65a.42.42,0,0,1,0-.22l21.3-106.48a.44.44,0,0,1,.13-.24l97-84.63a.41.41,0,0,1,.27-.1l60.7-1.12a.43.43,0,0,1,.43.37l6.67,52.28a.39.39,0,0,1-.06.28l-49.88,76.23a.41.41,0,0,0,0,.09l-23,69.49c0,.08.29,1.29.31,1.38L1188.5,436.1a.15.15,0,0,1,0,.07l5.61,52.72a.44.44,0,0,0,0,.1l36.47,99.31a.57.57,0,0,0,.08.13l63.4,74.62a.22.22,0,0,1,.05.08l32.49,63.3a.39.39,0,0,0,.21.19l84,37a.42.42,0,0,0,.22,0l50.8-5.58a.46.46,0,0,0,.32-.2l30.17-49.74a.62.62,0,0,1,.14-.14l19.29-11.64c6.33-3.82,16.81-4,23.26-.37l22.24,12.47.13.13a6.14,6.14,0,0,1,1,6l-8.68,23.65-.15.24-30.09,28.42a.37.37,0,0,0-.13.27L1512.09,858a.71.71,0,0,0,0,.14l22.46,88.12L1548,989.82a.43.43,0,0,0,.29.28l39.92,11.64a.43.43,0,0,1,.31.41v40.1a.43.43,0,0,1,0,0l-12.91,107.76a.76.76,0,0,0,0,.15l23.49,93.38a.43.43,0,0,1-.25.5l-33,13.2a.43.43,0,0,1-.54-.22l-14-30a17.2,17.2,0,0,0-22.48-8.43l-26.91,11.83a18.71,18.71,0,0,0-10.8,13.37l-15.42,75.1a.41.41,0,0,1-.29.32l-12.22,3.72a.42.42,0,0,1-.54-.34l-14.38-88.18a11.9,11.9,0,0,0-16.21-9.13l-13.47,5.43A12,12,0,0,0,1411,1242v93.69a.42.42,0,0,1-.42.42h-7.82a.41.41,0,0,1-.31-.14l-42.28-47.84a.43.43,0,0,0-.61,0l-23.15,22a.44.44,0,0,0-.13.31v67.87a.42.42,0,0,0,.42.42h356.52a.42.42,0,0,0,.42-.42V.46a.42.42,0,0,0-.42-.42H287.13A.42.42,0,0,0,286.82.74Z"/><path class="cls-1" d="M628.83,1024.17s30.32,1.81,42.54-18.1l26.43-29.73s3.43-22.48,11.25-23.46c0,0,13.68.74,13.44-20.77,0,0,13.93-18.57-2-14.42l-9,3.91s-10.26-7.33-13.69-7.33c0,0-9.28-.73-10-4.89,0,0-1-7.09-3.67-8.31,0,0-2.69-13-12.46-13.19H661.39s-8.55,14.17-7.33,15.15,2.69,5.37,1.71,7.09l1-1.72s-4.65,18.58-10,18.82c0,0-12.71,3.67-14.42,2.93,0,0-6.6-7.82-11,1.47,0,0-9.28,18.09-8.06,23.22l-8.31,26.88s2.69,22,12.46,21.26C617.4,1003,628.78,1012.6,628.83,1024.17Z"/><text class="cls-3" transform="translate(940.18 980.96)">NO<tspan class="cls-4" x="31.83" y="0">R</tspan><tspan class="cls-5" x="44.69" y="0">THEAS</tspan><tspan class="cls-6" x="109.17" y="0">T</tspan><tspan x="19.54" y="24">SE</tspan><tspan class="cls-7" x="42.08" y="24">A</tspan><tspan x="54.88" y="24">TTLE</tspan></text><text class="cls-3" transform="translate(929.24 840.88)">WEDGE<tspan class="cls-8" x="73.89" y="0">W</tspan><tspan x="94.82" y="0">OOD</tspan></text><text class="cls-3" transform="translate(1004.84 1164.99)">L<tspan class="cls-9" x="10.5" y="0">A</tspan><tspan x="24.34" y="0">URELHU</tspan><tspan class="cls-10" x="104.95" y="0">R</tspan><tspan class="cls-11" x="117.81" y="0">T</tspan></text><text class="cls-3" transform="translate(278.06 956.04)"><tspan class="cls-12">B</tspan><tspan x="13.14" y="0">ALLARD</tspan></text><text class="cls-3" transform="translate(1560.93 87.35)">B<tspan class="cls-13" x="13.39" y="0">O</tspan><tspan x="29.33" y="0">THEL</tspan><tspan class="cls-14" x="79.01" y="0">L</tspan></text><path class="cls-15" d="M765.7,1378.71l5.49-336.42s14.55-70.07,10.4-103.27c0,0-7.5-34.8-12.47-38.73,0,0-49.19-45.72-49.19-71.35l-4.15-160.71V626.15a29.14,29.14,0,0,1,2.68-12.23l32.88-71.3a27.21,27.21,0,0,0,2.49-10.19L756,486.74l2.43-113.11L740,332.26s-32.56-56.11-24.24-81.74c0,0,10.39-31.17,7.62-47.8,0,0-12.42-29.78-9-56.8,0,0,8-24.13,20.06-37.4L760.8,59.33,769.12,0h10.39l-9.7,64.84L731,131.38l-8,16.75,14.83,63.63-10.55,56.7,43.17,103.42-4.74,167.5a18.73,18.73,0,0,1-1.77,7.93l-29.94,64a45.54,45.54,0,0,0-4.28,19.59l1.42,197.3s2.75,17.55,47.08,64.6c0,0,19.31,26.82,13.07,88.15l-8.31,64.1-5.54,333.65Z"/><text class="cls-3" transform="translate(828.77 1188.85)">UNIVERSIT<tspan class="cls-16" x="105.05" y="0">Y</tspan><tspan x="117.6" y="0" xml:space="preserve"> O</tspan><tspan class="cls-17" x="138.51" y="0">F</tspan><tspan class="cls-18" x="4.18" y="24">W</tspan><tspan class="cls-19" x="24.44" y="24">ASHING</tspan><tspan class="cls-20" x="101.49" y="24">T</tspan><tspan x="113.33" y="24">ON</tspan></text><text class="cls-3" transform="translate(624.7 956.01)">GREEN<tspan x="7.88" y="24">LAKE</tspan></text><path class="cls-15" d="M785.26,914.78s5.18-.9,21-11.71c0,0,15.75-26.94,37.47-45.62l44.87-46,1.39-5.32a58.32,58.32,0,0,0,1.84-12.81l1-33.41s0-17.07,6-19.2l18.85-36.91s1.12-23.29,2.13-32.06l.46-30.57s9.85-34.84,12-36.62l43-109.14,7.11-17.78L986,468.8v-127l33-61.26,12.33-49.11s14.81-44.08,35.61-53.95l28.56-19.39-28.91-35.62-20.45-29.26-19.47-4.1-16.85-23-19-1.77L926.24,0h10.58L991.47,56.2,1013,59.38l18,20.28,20.48,9,47.25,62.77s5.64,11.28,31.38-19.4l20.45-19.74,25.39-3.88,55.71-4.23,83.57,3.17L1377.58,126l35.26,8.81L1471.73,163l35.61,3.53,35.26,16.92,18-1.41-3.09-56.56,6.62-14.31,16.57-13.27,52.25-4.81,25.47,10.55,12.9,17.4-7.4,6.7-15-18.44-20.61-8.25-44.51,6.64-13.55,17.18,1.22,55.21-.31,16.71L1539,195.12l-31.7-17.2-37-3.75-39.69-18.81-53.43-19.24-78.22-20-85-1.68-64,11.57L1114,159.72l-44,29.72-14.71,7.1-16.92,39.14-11.64,49.72-33.14,57.47,1.09,128L928,646.12l-.78,57.73L902.42,755l-3.37,35a37.43,37.43,0,0,1-6,22.7l-3.82,5.86-54,58.47a42.91,42.91,0,0,0-7.85,12.16,71.49,71.49,0,0,1-14.34,21.76c-6.3,6.41-25.08,15.51-25.08,15.51Z"/><path class="cls-15" d="M594.87,1236.17V1002.34l19.83-81.4L603.07,0h9.55l5,360.61,368.41,5v8.6l-369.24-4,5.4,551.15L601,999.43l2.13,267.06-1.72,61.89,17.86,50.33h-7.89s-19.1-32.47-16.2-58.22Z"/><text class="cls-3" transform="translate(468.15 832.31)">GREEN<tspan class="cls-21" x="66.06" y="0">W</tspan><tspan x="86.99" y="0">OOD</tspan></text><text class="cls-3" transform="translate(353.08 777.57)">C<tspan class="cls-22" x="13.11" y="0">R</tspan><tspan class="cls-9" x="26" y="0">O</tspan><tspan x="41.91" y="0">WN HIL</tspan><tspan class="cls-23" x="115.63" y="0">L</tspan></text><text class="cls-3" transform="translate(1159.2 1050.13)">WINDERMERE</text><text class="cls-3" transform="translate(1235.54 97.94)">KENMORE</text><text class="cls-3" transform="translate(760.67 646.68)">NO<tspan class="cls-4" x="31.83" y="0">R</tspan><tspan class="cls-5" x="44.69" y="0">TH</tspan><tspan class="cls-24" x="72.41" y="0">G</tspan><tspan class="cls-7" x="86.64" y="0">A</tspan><tspan x="99.44" y="0">TE</tspan></text><text class="cls-3" transform="translate(520.34 1220.58)">FREMON<tspan class="cls-6" x="86.97" y="0">T</tspan></text><text class="cls-3" transform="translate(555.98 1147.08)"><tspan class="cls-18">W</tspan><tspan class="cls-19" x="20.26" y="0">ALLING</tspan><tspan class="cls-25" x="91.69" y="0">F</tspan><tspan x="102.89" y="0">ORD</tspan></text><text class="cls-3" transform="translate(82.72 1164.99)">DIS<tspan class="cls-20" x="32.52" y="0">C</tspan><tspan class="cls-26" x="45.29" y="0">O</tspan><tspan class="cls-19" x="61.05" y="0">VE</tspan><tspan class="cls-27" x="86.73" y="0">R</tspan><tspan class="cls-28" x="99.1" y="0">Y</tspan><tspan class="cls-5" x="111.65" y="0"> </tspan><tspan class="cls-29" x="116.27" y="0">P</tspan><tspan x="127.97" y="0">ARK</tspan></text><path class="cls-15" d="M778.23,1330.41s40.09-2.38,42.36-3.06c1.66-.49,50.62-6.76,53.33-6.76,0,0,34.82-13.56,42.81-13.24,0,0,65.08-9.86,107.81-2.4l49.39,5.78,267.57,64.1v3.88h-29.16l-231.29-55.09s-107.32-24.88-203.63,5l-32.86,3.34-38.89,4.59-27.56,1.37Z"/><text class="cls-30" transform="translate(65.51 167.32)"><tspan class="cls-31">G</tspan><tspan class="cls-32" x="33.65" y="0">r</tspan><tspan class="cls-33" x="51.16" y="0">e</tspan><tspan class="cls-34" x="76.49" y="0">a</tspan><tspan class="cls-35" x="100.44" y="0">t</tspan><tspan class="cls-33" x="118.25" y="0">e</tspan><tspan class="cls-36" x="143.58" y="0">r</tspan><tspan x="160.55" y="0"> </tspan><tspan x="0" y="56.4">Se</tspan><tspan class="cls-34" x="51.37" y="56.4">a</tspan><tspan x="75.32" y="56.4">ttle </tspan><tspan x="0" y="112.8">A</tspan><tspan class="cls-32" x="33.42" y="112.8">r</tspan><tspan x="50.92" y="112.8">ea</tspan></text></g></g></svg>