<?xml version="1.0" standalone="no"?>
<!DOCTYPE svg PUBLIC "-//W3C//DTD SVG 20010904//EN"
 "http://www.w3.org/TR/2001/REC-SVG-20010904/DTD/svg10.dtd">
<svg version="1.0" xmlns="http://www.w3.org/2000/svg"
 width="561.000000pt" height="510.000000pt" viewBox="0 0 561.000000 510.000000"
 preserveAspectRatio="xMidYMid meet">
<metadata>
Created by potrace 1.15, written by Peter Selinger 2001-2017
</metadata>
<g transform="translate(0.000000,510.000000) scale(0.100000,-0.100000)"
fill="#000000" stroke="none">
<path d="M4149 4742 c-740 -371 -2384 -1198 -2562 -1289 -56 -29 -107 -52
-114 -52 -6 -1 -326 -159 -711 -351 -557 -279 -707 -357 -731 -385 -29 -34
-31 -41 -31 -115 0 -74 2 -81 31 -115 24 -28 174 -106 731 -385 385 -192 705
-350 711 -351 7 0 58 -23 114 -52 178 -91 1822 -918 2562 -1289 l715 -358 74
0 75 0 44 45 45 45 -3 79 c-3 59 -9 84 -22 99 -10 11 -26 33 -35 49 -28 49
-107 169 -337 515 -121 182 -224 337 -230 346 -5 9 -32 49 -60 90 -27 41 -54
81 -60 90 -5 8 -51 76 -102 151 -109 161 -464 687 -478 709 -5 8 -56 85 -112
170 -57 85 -103 158 -103 162 0 4 46 77 103 162 56 85 107 162 112 170 14 22
369 548 478 709 51 75 97 143 102 151 6 9 33 49 60 90 28 41 55 81 60 90 6 9
109 164 230 346 230 346 309 466 337 515 9 16 25 38 35 49 14 15 19 40 21 102
l4 82 -46 42 c-45 41 -47 42 -119 42 l-73 0 -715 -358z m-156 -899 c-431 -645
-510 -764 -544 -818 -11 -16 -75 -115 -144 -219 l-125 -189 0 -67 0 -67 125
-189 c69 -104 133 -202 144 -219 34 -54 113 -173 543 -816 388 -581 422 -635
389 -620 -32 15 -387 193 -1501 752 -201 101 -422 211 -490 243 -254 121
-1820 909 -1820 916 0 7 1568 797 1820 916 68 32 347 171 620 308 589 296
1404 705 1407 706 1 0 -190 -287 -424 -637z"/>
<path d="M4490 2475 l0 -465 90 0 90 0 0 292 0 291 179 -289 179 -289 96 -3
96 -3 0 466 0 465 -90 0 -90 0 -2 -293 -3 -294 -179 294 -180 293 -93 0 -93 0
0 -465z"/>
</g>
</svg>
