<svg xmlns="http://www.w3.org/2000/svg" viewBox="0 0 307.33 585.46"><defs><style>.cls-1{fill:none;stroke:#fff;stroke-linecap:round;stroke-miterlimit:10;stroke-width:3px;}</style></defs><title>Asset 1</title><g id="Layer_2" data-name="Layer 2"><g id="Layer_1-2" data-name="Layer 1"><circle cx="177.78" cy="48.35" r="48.35"/><path d="M167.71,118.68a47.55,47.55,0,0,0-35.14,2.39L51.39,159.49a49.36,49.36,0,0,0-14.8,10.69c-7.26,7.69-16.9,21.34-22.74,43.4L.79,257.31A13.37,13.37,0,0,0,.41,259c-.79,5.11-2.89,27.83,22.05,30.12,0,0,31.14,5.3,37.11-29.82l6.8-35.22a12.09,12.09,0,0,1,2.08-4.84l.16-.24c7.55-10.55,24.2-4.19,22.78,8.71l-8,72.68s-2.62,22,4.92,34A12.58,12.58,0,0,1,89.68,345L29.19,529.35c-.07.2-.13.39-.21.58-1.4,3.68-16.29,44.74,15.35,50.09,0,0,36.76,9.62,48.37-29.15l44-141.9A12.6,12.6,0,0,1,157,403.19l21.83,19a12.63,12.63,0,0,1,4.32,8.77l7.63,128.56s-.7,29.69,38,25.6c.43-.05.86-.11,1.28-.2,4.49-.93,24.78-7.17,24.1-28.12L242.86,412c-.46-7.21-1.84-20.54-5.71-25.48-9.35-11.91-33.36-34.78-57-52a12.72,12.72,0,0,1-5.23-9.36c-.61-8.68-.3-26.5,7.27-54.44A12.62,12.62,0,0,1,201.84,264l64.47,47.68s19.08,16.09,36.09-2.18a16,16,0,0,0,2.4-3.63c2.95-6.69,8.68-27.89-20.13-54.72a12.57,12.57,0,0,0-1-.82l-84.25-65a12.57,12.57,0,0,1-4.89-10.48c.55-12.78-.43-41.32-18.85-52C175.72,122.8,174.08,120.77,167.71,118.68Z"/><line class="cls-1" x1="89.22" y1="338.87" x2="144.64" y2="401.77"/><line class="cls-1" x1="196.99" y1="173.83" x2="183.06" y2="275.29"/></g></g></svg>