<?xml version="1.0" encoding="utf-8"?>
<!-- Generator: Adobe Illustrator 22.1.0, SVG Export Plug-In . SVG Version: 6.00 Build 0)  -->
<svg version="1.1" id="Layer_1" xmlns="http://www.w3.org/2000/svg" xmlns:xlink="http://www.w3.org/1999/xlink" x="0px" y="0px"
	 viewBox="0 0 512 512" style="enable-background:new 0 0 512 512;" xml:space="preserve">
<g transform="translate(0.000000,512.000000) scale(0.100000,-0.100000)">
	<path d="M4963.4,5120c-49,0-187-68-2470-1210c-1331-665-2428-1218-2439-1227c-42-36-55-66-55-123s13-87,55-123
		c11-9,1108-562,2439-1227C4818.4,47,4913.4,0,4966.4,0c50,0,57,3,101,44c44,42,46,46,49,107c4,54,0,69-19,98c-13,19-28,42-33,50
		c-6,9-136,205-290,435s-285,425-290,434c-6,9-33,49-60,90c-28,41-55,82-60,91c-6,9-136,204-290,435c-154,230-285,426-290,435
		c-6,9-59,90-118,179l-108,162l108,162c59,89,112,170,118,179c5,9,136,205,290,435c154,231,284,426,290,435c5,9,32,50,60,91
		c27,41,54,81,60,90c5,9,136,204,290,434s284,426,290,435c5,8,20,31,32,50c25,37,31,107,14,152c-10,26-49,69-78,86
		C5022.4,5115,4991.4,5120,4963.4,5120z M2508.4,3550c1083,542,1967,982,1965,978c-2-3-290-435-639-958l-635-952v-58v-58l635-952
		c349-523,637-955,639-958c2-4-882,436-1965,978c-1083,541-1969,987-1969,990S1425.4,3009,2508.4,3550z"/>
</g>
</svg>
