<?xml version="1.0" standalone="no"?>
<!DOCTYPE svg PUBLIC "-//W3C//DTD SVG 20010904//EN"
 "http://www.w3.org/TR/2001/REC-SVG-20010904/DTD/svg10.dtd">
<svg version="1.0" xmlns="http://www.w3.org/2000/svg"
 width="561.000000pt" height="479.000000pt" viewBox="0 0 561.000000 479.000000"
 preserveAspectRatio="xMidYMid meet">
<metadata>
Created by potrace 1.15, written by Peter Selinger 2001-2017
</metadata>
<g transform="translate(0.000000,479.000000) scale(0.100000,-0.100000)"
fill="#000000" stroke="none">
<path d="M338 4754 c-38 -35 -38 -35 -38 -118 0 -75 2 -85 25 -106 14 -13 25
-28 25 -32 0 -9 71 -109 185 -258 52 -68 179 -243 240 -330 11 -16 39 -53 63
-82 49 -61 128 -169 179 -245 19 -29 39 -53 44 -53 5 0 9 -5 9 -11 0 -6 15
-29 33 -50 37 -44 64 -80 152 -204 35 -49 83 -114 107 -144 24 -29 57 -73 73
-96 17 -23 57 -79 90 -125 33 -45 71 -98 84 -119 13 -20 47 -64 75 -98 28 -34
78 -101 111 -148 33 -47 70 -98 81 -113 22 -26 22 -27 3 -52 -11 -14 -49 -65
-84 -115 -35 -49 -86 -117 -112 -149 -26 -33 -59 -76 -73 -97 -14 -20 -52 -74
-85 -119 -33 -46 -73 -102 -90 -125 -16 -23 -49 -67 -73 -96 -24 -30 -72 -94
-107 -144 -88 -124 -115 -160 -152 -204 -18 -21 -33 -44 -33 -50 0 -6 -4 -11
-9 -11 -5 0 -25 -24 -44 -53 -51 -76 -130 -184 -179 -245 -24 -29 -52 -66 -63
-82 -61 -87 -188 -262 -240 -330 -105 -138 -185 -248 -185 -255 0 -4 -11 -20
-25 -37 -22 -26 -25 -39 -25 -107 0 -76 0 -77 38 -114 37 -37 39 -37 121 -37
82 0 84 1 227 70 80 38 157 73 172 76 15 4 84 36 153 71 69 34 133 63 141 63
8 0 68 27 134 59 65 32 139 66 164 74 25 8 95 40 155 70 61 30 131 62 156 70
25 9 83 34 130 57 156 77 184 90 198 90 7 0 34 11 60 25 67 35 241 115 251
115 5 0 39 15 77 34 141 69 222 106 234 106 6 0 28 9 48 19 76 40 236 113 295
135 33 13 106 47 161 75 55 28 106 51 114 51 7 0 79 31 158 70 80 38 150 70
157 70 7 0 76 31 153 70 77 39 146 70 152 70 11 0 71 27 245 111 33 16 66 29
73 29 7 0 62 24 121 54 59 29 143 68 187 86 44 18 96 40 115 50 64 34 189 90
200 90 6 0 32 11 58 24 73 38 236 113 263 121 13 4 44 17 69 30 51 26 153 74
220 104 86 38 110 73 110 156 0 83 -24 118 -110 156 -67 30 -169 78 -220 104
-25 13 -56 26 -69 30 -27 8 -190 83 -263 121 -26 13 -52 24 -58 24 -11 0 -136
56 -200 90 -19 10 -71 32 -115 50 -44 18 -128 57 -187 86 -59 30 -114 54 -121
54 -7 0 -40 13 -73 29 -174 84 -234 111 -245 111 -6 0 -75 32 -152 70 -77 39
-146 70 -153 70 -7 0 -77 32 -157 70 -79 39 -151 70 -158 70 -8 0 -59 23 -114
51 -55 28 -128 62 -161 75 -59 22 -219 95 -295 135 -20 10 -42 19 -48 19 -12
0 -93 37 -234 106 -38 19 -72 34 -77 34 -10 0 -184 80 -251 115 -26 14 -53 25
-60 25 -14 0 -42 13 -198 90 -47 23 -105 48 -130 57 -25 8 -95 40 -156 70 -60
30 -130 62 -155 70 -25 8 -99 42 -164 74 -66 32 -126 59 -134 59 -8 0 -72 29
-141 63 -69 35 -138 67 -153 71 -15 3 -92 38 -172 76 -143 70 -145 70 -228 70
-81 0 -84 -1 -120 -36z m872 -639 c58 -26 121 -54 140 -62 19 -8 62 -29 95
-45 32 -16 98 -46 145 -65 47 -19 135 -59 195 -88 61 -29 121 -56 135 -60 14
-4 68 -29 120 -55 52 -26 127 -60 165 -75 39 -15 120 -51 180 -80 61 -29 121
-56 134 -60 13 -4 87 -38 165 -75 77 -37 152 -71 166 -75 14 -4 77 -32 140
-62 63 -31 135 -63 160 -73 25 -10 81 -35 125 -55 137 -64 178 -82 255 -115
41 -17 95 -42 120 -55 25 -13 85 -40 134 -60 49 -20 121 -52 160 -72 39 -19
109 -50 156 -70 47 -20 135 -60 197 -89 62 -30 117 -54 123 -54 5 0 70 -29
142 -64 73 -35 144 -67 158 -71 14 -4 59 -24 100 -45 41 -20 85 -40 98 -44 12
-4 40 -18 62 -30 l39 -22 -42 -21 c-91 -45 -224 -106 -257 -118 -19 -7 -92
-40 -163 -74 -70 -33 -132 -61 -137 -61 -6 0 -61 -24 -123 -54 -62 -29 -150
-69 -197 -89 -47 -20 -117 -51 -156 -70 -39 -20 -111 -52 -160 -72 -49 -20
-109 -47 -134 -60 -25 -12 -79 -37 -120 -55 -87 -38 -144 -63 -255 -115 -44
-20 -100 -45 -125 -55 -25 -10 -97 -42 -160 -73 -63 -30 -126 -58 -140 -62
-14 -4 -89 -38 -166 -75 -78 -37 -152 -71 -165 -75 -13 -4 -73 -31 -134 -60
-60 -29 -141 -65 -180 -80 -38 -15 -113 -49 -165 -75 -52 -26 -106 -51 -120
-55 -14 -4 -74 -31 -135 -60 -60 -29 -148 -68 -195 -88 -47 -19 -128 -55 -180
-80 -52 -25 -131 -61 -175 -80 -44 -20 -115 -51 -157 -71 l-78 -35 37 52 c20
29 66 90 102 137 74 94 143 189 196 268 19 29 52 72 73 95 21 23 50 60 65 82
15 22 52 74 82 115 30 41 73 102 96 135 23 33 52 69 63 80 12 11 39 47 61 80
22 33 46 66 53 74 8 8 25 32 38 53 30 47 109 152 146 193 14 17 46 59 69 95
24 36 49 70 55 75 7 6 23 28 37 50 13 22 48 69 77 105 l52 65 -4 65 c-3 60 -7
69 -51 124 -27 32 -60 77 -74 100 -14 22 -30 46 -37 51 -6 6 -31 39 -55 75
-23 36 -55 79 -69 95 -37 41 -116 146 -146 193 -13 21 -30 45 -38 53 -7 8 -31
41 -53 74 -22 33 -49 69 -61 80 -11 11 -40 47 -63 80 -23 33 -66 94 -96 135
-30 41 -67 93 -82 115 -15 22 -44 59 -65 82 -21 23 -54 66 -73 95 -53 79 -122
174 -196 268 -36 47 -82 109 -102 137 l-37 53 53 -24 c28 -13 99 -45 157 -71z"/>
<path d="M190 2365 l0 -505 100 0 100 0 0 317 0 317 194 -315 194 -314 106 -3
106 -3 0 506 0 505 -95 0 -95 0 -2 -327 -3 -327 -200 327 -199 327 -103 0
-103 0 0 -505z"/>
</g>
</svg>
