<svg xmlns="http://www.w3.org/2000/svg" viewBox="0 0 1198.67 873.34"><defs><style>.cls-1{fill:#2e64af;}.cls-2{font-size:97px;}.cls-10,.cls-2,.cls-8{fill:#fff;}.cls-10,.cls-2{font-family:Helvetica-Bold, Helvetica;font-weight:700;}.cls-3{font-size:15px;}.cls-4{letter-spacing:-0.05em;}.cls-5{letter-spacing:0em;}.cls-6{fill:#d48e56;}.cls-7{fill:#995626;}.cls-9{fill:none;stroke:#fff;stroke-miterlimit:10;stroke-width:2px;}.cls-10{font-size:44px;}</style></defs><title>Asset 18</title><g id="Layer_2" data-name="Layer 2"><g id="Layer_1-2" data-name="Layer 1"><rect class="cls-1" y="223.29" width="1198.67" height="227.23"/><rect class="cls-1" y="72.18" width="1198.67" height="110.07"/><text class="cls-2" transform="translate(154.61 366.46)">Burke<tspan class="cls-3" x="274.94" y="0"> </tspan><tspan x="279.11" y="0">-Gilman </tspan><tspan class="cls-4" x="667.16" y="0">T</tspan><tspan class="cls-5" x="721.1" y="0">rail</tspan></text><rect class="cls-6" x="43.89" width="61.61" height="873.34"/><circle class="cls-7" cx="74.69" cy="138.99" r="15.98"/><circle class="cls-7" cx="74.69" cy="277.61" r="15.98"/><circle class="cls-7" cx="74.69" cy="404.87" r="15.98"/><rect class="cls-6" x="1103.08" y="8.49" width="61.61" height="864.85"/><circle class="cls-7" cx="1133.88" cy="138.99" r="15.98"/><circle class="cls-7" cx="1133.88" cy="277.61" r="15.98"/><circle class="cls-7" cx="1133.88" cy="404.87" r="15.98"/><path class="cls-8" d="M164.67,95.41s.87,7.31.38,8c0,0-.81,3.25,1,5.19v5.6s-.17,2.79,1.67,7.7a49.74,49.74,0,0,1,2.59,9.71,31,31,0,0,0,5.19,10,26.65,26.65,0,0,0,2,3.31s.71,1.14,4.16,4.11c0,0,2,3.19,3.35,5.19,0,0,1.94,2,6.37,1.14,0,0,4.11-1.71,5.51-1.65,0,0,2.48-3.09-.65-5.08l-8-.29s-2.48.17-2.43-2.11c0,0-1-2.06,2.43-2,0,0,6.7.74,8.37-4,0,0,.16-2.17-6.32-1.49a2.1,2.1,0,0,1-2.32.69s-3.29-.86-4.48.62a3.45,3.45,0,0,1-4.43,1.66s-2.16-2.4-1.19-5.08c0,0,1.14.11,1.68-2.68,0,0-.22-1.54,1.94-1.54a3.63,3.63,0,0,0,2.36-4.55s-3.8-.88-1.22-1.84c0,0,2.12,1.11,2.89-2.32a4.64,4.64,0,0,1,3.94-1.55s2.79.44,1.57-2.8a6.18,6.18,0,0,0-1.57-1.44s-.8-.37-.56-3.28c0,0,.07-7.45-2.33-10l-1.75-1.36s-.55-1.22.6-1.48a5.52,5.52,0,0,0,3-6.08l.69-.89H164.67Z"/><path class="cls-8" d="M200.87,129.06s4.52,1.17,5.35,2.16a6.22,6.22,0,0,1,1.53,3.22s.88,2.95,2.45-.44a41.39,41.39,0,0,0,1-5.19l.6-9.57a20.13,20.13,0,0,1,1.81-7.54s1.06-1.4.72-4.73c0,0,.21-3.77-6.15-3,0,0-2.44.46-2.64.9,0,0-1.68.5-1-1,0,0,1.17-1.39-.46-.73,0,0-2.05.93-2.64-.71a2.26,2.26,0,0,0-3.52,0s-.07,2.43-1,3.17c0,0-1.71,1.2-.13,3.58a2.58,2.58,0,0,1,.39,3.55,5.18,5.18,0,0,0,1.86,4.54l2.84,2.52s1.66,2.57-.49,2.4a1.59,1.59,0,0,0-2,1.51s-1.24,2.07-1.78,2.07C197.46,125.8,195,127.09,200.87,129.06Z"/><path class="cls-8" d="M199.2,98.34,196.26,101s-2.16,2.16,1.05,1.63c0,0,9.57-2,9.78-3.08L206,98.27Z"/><path class="cls-8" d="M183.28,135.14l-.95,1.12s-.67,1.27.75.48a3.52,3.52,0,0,1,2.21-1.11s1.39.08,1.39.44c0,0,.84,1,2.64-.28,0,0,.79-1.34,3.88-1,0,0,1.49-1-3-1.83A9.74,9.74,0,0,0,183.28,135.14Z"/><path class="cls-8" d="M195.53,118.25s-2.56,2-2.67,3.7c0,0-.77,2.45,2.67,1.57a3.1,3.1,0,0,0,2.31-3.17S198.24,118.18,195.53,118.25Z"/><path class="cls-1" d="M180.09,124.19s-2.1,2-2.33,3.57c0,0,1.05,2.49,2.33-1.93C180.09,125.83,180.82,124.62,180.09,124.19Z"/><path class="cls-1" d="M172,99.25s-1.58,2.39-2.51,2.43a1.1,1.1,0,0,0,1,1.63s1.86.14,2.17.6c0,0,2,1.4-1.22,2.2a2.6,2.6,0,0,0-2.65,1.55s-1.39,2.45,1.27,1.48c0,0,1.93-1.6,2.71-.62a3.06,3.06,0,0,0,4.1.94s2.26-.86,2.37-2.94c0,0,.47-3.77-.57-5.16C178.63,101.36,176.91,99,172,99.25Z"/><rect class="cls-9" x="153.23" y="93.91" width="72.2" height="69.8"/><text class="cls-10" transform="translate(240.39 143.42)">King County</text></g></g></svg>