<svg xmlns="http://www.w3.org/2000/svg" viewBox="0 0 1904.44 589.67"><defs><style>.cls-1{fill:#b5b5b6;}.cls-2{fill:none;stroke:#c4c2c2;stroke-miterlimit:10;stroke-width:2px;}.cls-3{fill:#5c2e20;}.cls-4{fill:#648e3d;}.cls-5{fill:#7aaf42;}.cls-6{fill:#00934a;}.cls-7{fill:#009f4c;}</style></defs><title>Asset 11</title><g id="Layer_2" data-name="Layer 2"><g id="Layer_1-2" data-name="Layer 1"><rect class="cls-1" x="10.17" y="281.28" width="1877.27" height="307.38"/><rect class="cls-2" x="10.17" y="281.28" width="1877.27" height="307.38"/><polyline class="cls-3" points="470.62 305.46 499.06 305.46 498.15 254.95 470.17 255.06"/><polyline class="cls-3" points="397.88 284.9 420.99 284.9 420.25 250.28 397.51 250.36"/><polygon class="cls-4" points="353.48 184.05 316.15 246.46 391.93 246.46 446.11 159.7 449.54 89.07 437.88 80.15 449.54 80.15 410.45 12.6 372.39 81.18 385.07 81.18 352.5 126.44 373.07 126.44 335.01 184.05 353.48 184.05"/><polygon class="cls-5" points="378.72 255.73 422.34 183.42 400.93 183.42 439.78 124.75 419.17 124.75 456.17 69.78 444.92 69.78 483.82 3 524.31 70.33 513.39 70.33 547.06 124.7 529.77 124.7 561.62 181.34 547.06 181.34 587.32 254.36 470.17 255.13 378.72 255.73"/><path class="cls-6" d="M20.14,319.93S-8.67,306.06,2.63,281.64a28.59,28.59,0,0,1,30.4-14S31.69,236,75.28,235.71c0,0,21.46-64.54,85.84-33.26,0,0,61.69-84.29,130.43-8.56,0,0,39.23-4.61,52.3,22.72,0,0,21.8-6.92,33.53,5.92,0,0,53.32-67.86,113,18.59,0,0,41.58-10.68,50.63,31.14,0,0,51.3,6.77,10.73,47.67Z"/><polyline class="cls-3" points="1182.85 316.89 1212.64 316.89 1211.69 263.97 1182.37 264.08"/><polyline class="cls-3" points="1106.63 295.35 1130.85 295.35 1130.08 259.08 1106.25 259.16"/><polygon class="cls-4" points="1060.12 189.69 1021 255.07 1100.4 255.07 1157.16 164.18 1160.76 90.18 1148.54 80.83 1160.76 80.83 1119.8 10.06 1079.92 81.91 1093.22 81.91 1059.09 129.34 1080.64 129.34 1040.76 189.69 1060.12 189.69"/><polygon class="cls-5" points="1086.56 264.79 1132.26 189.03 1109.83 189.03 1150.53 127.56 1128.93 127.56 1167.7 69.97 1155.92 69.97 1196.67 0 1239.1 70.55 1227.65 70.55 1262.93 127.51 1244.82 127.51 1278.18 186.85 1262.93 186.85 1305.11 263.36 1182.37 264.16 1086.56 264.79"/><polygon class="cls-4" points="961.04 204.79 1000.39 270.56 920.52 270.56 863.41 179.12 859.8 104.67 872.09 95.27 859.8 95.27 901 24.07 941.12 96.36 927.75 96.36 962.08 144.07 940.4 144.07 980.52 204.79 961.04 204.79"/><polyline class="cls-3" points="811.16 318.8 841.14 318.8 840.18 265.56 810.69 265.68"/><polyline class="cls-3" points="734.49 297.13 758.85 297.13 758.08 260.64 734.1 260.72"/><polygon class="cls-4" points="687.7 190.83 648.35 256.61 728.22 256.61 785.33 165.17 788.94 90.72 776.65 81.32 788.94 81.32 747.74 10.12 707.62 82.41 720.99 82.41 686.66 130.12 708.34 130.12 668.22 190.83 687.7 190.83"/><polygon class="cls-5" points="714.3 266.39 760.27 190.17 737.71 190.17 778.65 128.33 756.93 128.33 795.92 70.39 784.07 70.39 825.07 0 867.75 70.97 856.24 70.97 891.73 128.28 873.51 128.28 907.07 187.98 891.73 187.98 934.17 264.95 810.69 265.75 714.3 266.39"/><path class="cls-7" d="M501.21,319.69s-49-10.13-25.67-54c0,0,12.84-23.64,43.23-20.94,0,0,17.23-27.69,51.68-13.51,0,0,41.2-50,88.82-2,0,0,28.71-30.06,56.74,13.84,0,0,106.39,16.55,26.68,76.67Z"/><path class="cls-6" d="M800.25,319.54s-28.3-13.88-17.2-38.29c0,0,8.78-17.62,29.86-14,0,0-1.32-31.61,41.49-31.94,0,0,21.07-64.54,84.29-33.26,0,0,60.59-84.29,128.1-8.56,0,0,38.53-4.61,51.37,22.72,0,0,21.4-6.91,32.93,5.93,0,0,52.35-67.87,111,18.59,0,0,40.83-10.69,49.72,31.13,0,0,50.38,6.77,10.54,47.68Z"/><path class="cls-7" d="M785.7,319.93S748.92,294,791,275.65c0,0,1.13-33.77,34.52-33,0,0-3.72-48.46,41.2-30.59a.87.87,0,0,0,.84-.09c4.69-3.39,51.28-35,76.93,27.3,0,0,30.39-11.26,42.78,14.63,0,0,29.27-34.15,42.78,15.77,0,0,58.92,6.75,15,50.28Z"/><path class="cls-7" d="M651.23,319.93s-49-10.13-25.67-54c0,0,12.83-23.65,43.23-20.94,0,0,17.23-27.7,51.67-13.51,0,0,41.21-50,88.83-2,0,0,28.71-30.06,56.74,13.85,0,0,106.38,16.55,26.68,76.66Z"/><polyline class="cls-3" points="1607.46 310.19 1578.29 310.19 1579.22 258.39 1607.92 258.5"/><polyline class="cls-3" points="1682.06 289.1 1658.36 289.1 1659.11 253.6 1682.44 253.68"/><polygon class="cls-4" points="1727.59 185.68 1765.88 249.68 1688.16 249.68 1632.6 160.71 1629.08 88.27 1641.04 79.13 1629.08 79.13 1669.17 9.85 1708.2 80.18 1695.19 80.18 1728.6 126.6 1707.5 126.6 1746.54 185.68 1727.59 185.68"/><polygon class="cls-5" points="1701.71 259.19 1656.98 185.03 1678.93 185.03 1639.09 124.87 1660.23 124.87 1622.28 68.49 1633.82 68.49 1593.92 0 1552.4 69.06 1563.6 69.06 1529.07 124.81 1546.8 124.81 1514.14 182.9 1529.07 182.9 1487.78 257.79 1607.92 258.57 1701.71 259.19"/><path class="cls-6" d="M1262.36,319.93s-28.3-13.87-17.21-38.29c0,0,8.79-17.62,29.86-14,0,0-1.31-31.61,41.49-31.94,0,0,21.08-64.54,84.3-33.26,0,0,60.59-84.29,128.1-8.56,0,0,38.52-4.61,51.37,22.72,0,0,21.4-6.92,32.92,5.92,0,0,52.36-67.86,111,18.59,0,0,40.84-10.68,49.73,31.14,0,0,50.38,6.77,10.53,47.67Z"/><path class="cls-7" d="M1633.34,319.93s-49-10.13-25.67-54c0,0,12.83-23.65,43.23-20.94,0,0,17.22-27.7,51.67-13.51,0,0,41.2-50,88.83-2,0,0,28.7-30.06,56.73,13.85,0,0,106.39,16.55,26.69,76.66Z"/></g></g></svg>