<svg xmlns="http://www.w3.org/2000/svg" viewBox="0 0 1904.44 632.8"><defs><style>.cls-1{fill:#b5b5b6;}.cls-2{fill:none;stroke:#c4c2c2;stroke-miterlimit:10;stroke-width:2px;}.cls-3{fill:#5c2e20;}.cls-4{fill:#648e3d;}.cls-5{fill:#7aaf42;}.cls-6{fill:#00934a;}.cls-7{fill:#009f4c;}</style></defs><title>Asset 10</title><g id="Layer_2" data-name="Layer 2"><g id="Layer_1-2" data-name="Layer 1"><rect class="cls-1" x="10.17" y="344.41" width="1877.27" height="287.39"/><rect class="cls-2" x="10.17" y="344.41" width="1877.27" height="287.39"/><polyline class="cls-3" points="504.4 368.59 539.05 368.59 537.94 307.03 503.84 307.17"/><polyline class="cls-3" points="415.75 343.53 443.91 343.53 443.01 301.35 415.3 301.44"/><polygon class="cls-4" points="361.65 220.64 316.15 296.69 408.5 296.69 474.52 190.97 478.7 104.89 464.49 94.02 478.7 94.02 431.06 11.7 384.68 95.28 400.14 95.28 360.44 150.43 385.52 150.43 339.13 220.64 361.65 220.64"/><polygon class="cls-5" points="392.4 307.99 445.55 219.87 419.47 219.87 466.81 148.38 441.69 148.38 486.78 81.39 473.07 81.39 520.48 0 569.82 82.06 556.51 82.06 597.54 148.31 576.47 148.31 615.28 217.34 597.54 217.34 646.61 306.32 503.84 307.26 392.4 307.99"/><path class="cls-6" d="M20.14,383.06S-8.67,369.19,2.63,344.78a28.61,28.61,0,0,1,30.4-14s-1.34-31.61,42.25-31.94c0,0,21.46-64.54,85.84-33.26,0,0,61.69-84.29,130.43-8.56,0,0,39.23-4.61,52.3,22.72,0,0,21.8-6.92,33.53,5.93,0,0,53.32-67.87,113,18.58,0,0,41.58-10.68,50.63,31.14,0,0,51.3,6.77,10.73,47.67Z"/><polyline class="cls-3" points="1209.25 380.02 1243.9 380.02 1242.8 318.47 1208.7 318.6"/><polyline class="cls-3" points="1120.6 354.97 1148.77 354.97 1147.87 312.78 1120.15 312.87"/><polygon class="cls-4" points="1066.5 232.07 1021 308.12 1113.35 308.12 1179.38 202.4 1183.56 116.32 1169.35 105.45 1183.56 105.45 1135.92 23.14 1089.54 106.71 1105 106.71 1065.3 161.87 1090.37 161.87 1043.99 232.07 1066.5 232.07"/><polygon class="cls-5" points="1097.26 319.42 1150.41 231.31 1124.32 231.31 1171.66 159.81 1146.54 159.81 1191.63 92.82 1177.93 92.82 1225.33 11.43 1274.67 93.49 1261.37 93.49 1302.4 159.74 1281.33 159.74 1320.14 228.77 1302.4 228.77 1351.46 317.76 1208.7 318.69 1097.26 319.42"/><polygon class="cls-4" points="1009.88 250.11 1055.37 326.16 963.02 326.16 897 220.44 892.82 134.36 907.03 123.5 892.82 123.5 940.46 41.18 986.84 124.75 971.38 124.75 1011.08 179.91 986.01 179.91 1032.39 250.11 1009.88 250.11"/><polyline class="cls-3" points="836.59 381.94 871.24 381.94 870.14 320.38 836.04 320.51"/><polyline class="cls-3" points="747.94 356.88 776.11 356.88 775.21 314.69 747.49 314.78"/><polygon class="cls-4" points="693.84 233.98 648.35 310.03 740.69 310.03 806.72 204.31 810.9 118.23 796.69 107.37 810.9 107.37 763.26 25.05 716.88 108.62 732.34 108.62 692.64 163.78 717.71 163.78 671.33 233.98 693.84 233.98"/><polygon class="cls-5" points="724.6 321.33 777.75 233.22 751.66 233.22 799 161.72 773.88 161.72 818.97 94.73 805.27 94.73 852.67 13.34 902.01 95.4 888.71 95.4 929.74 161.66 908.67 161.66 947.48 230.68 929.74 230.68 978.8 319.67 836.04 320.6 724.6 321.33"/><path class="cls-7" d="M501.21,382.82s-49-10.13-25.67-54c0,0,12.84-23.64,43.23-20.94,0,0,17.23-27.69,51.68-13.51,0,0,41.2-50,88.82-2,0,0,28.71-30.06,56.74,13.84,0,0,106.39,16.55,26.68,76.67Z"/><path class="cls-6" d="M800.25,382.67s-28.3-13.88-17.2-38.29c0,0,8.78-17.62,29.86-14,0,0-1.32-31.61,41.49-31.94,0,0,21.07-64.54,84.29-33.26,0,0,60.59-84.29,128.1-8.56,0,0,38.53-4.61,51.37,22.72,0,0,21.4-6.91,32.93,5.93,0,0,52.35-67.87,111,18.59,0,0,40.83-10.69,49.72,31.13,0,0,50.38,6.77,10.54,47.68Z"/><path class="cls-7" d="M785.7,383.06s-36.78-25.89,5.25-44.28c0,0,1.13-33.77,34.52-33,0,0-3.72-48.46,41.2-30.59a.87.87,0,0,0,.84-.09c4.69-3.39,51.28-35,76.93,27.3,0,0,30.39-11.26,42.78,14.63,0,0,29.27-34.15,42.78,15.77,0,0,58.92,6.75,15,50.28Z"/><path class="cls-7" d="M651.23,383.06s-49-10.13-25.67-54c0,0,12.83-23.65,43.23-20.94,0,0,17.23-27.7,51.67-13.51,0,0,41.21-50,88.83-2,0,0,28.71-30.06,56.74,13.85,0,0,106.38,16.55,26.68,76.66Z"/><polyline class="cls-3" points="1629.99 373.32 1595.34 373.32 1596.44 311.76 1630.54 311.9"/><polyline class="cls-3" points="1718.64 348.26 1690.47 348.26 1691.37 306.08 1719.09 306.17"/><polygon class="cls-4" points="1772.74 225.37 1818.23 301.42 1725.89 301.42 1659.86 195.7 1655.68 109.62 1669.89 98.75 1655.68 98.75 1703.32 16.43 1749.7 100.01 1734.24 100.01 1773.94 155.16 1748.87 155.16 1795.25 225.37 1772.74 225.37"/><polygon class="cls-5" points="1741.98 312.72 1688.83 224.6 1714.92 224.6 1667.58 153.1 1692.7 153.1 1647.61 86.12 1661.31 86.12 1613.91 4.73 1564.57 86.79 1577.87 86.79 1536.84 153.04 1557.91 153.04 1519.1 222.07 1536.84 222.07 1487.78 311.05 1630.54 311.99 1741.98 312.72"/><path class="cls-6" d="M1262.36,383.06s-28.3-13.87-17.21-38.28c0,0,8.79-17.62,29.86-14,0,0-1.31-31.61,41.49-31.94,0,0,21.08-64.54,84.3-33.26,0,0,60.59-84.29,128.1-8.56,0,0,38.52-4.61,51.37,22.72,0,0,21.4-6.92,32.92,5.93,0,0,52.36-67.87,111,18.58,0,0,40.84-10.68,49.73,31.14,0,0,50.38,6.77,10.53,47.67Z"/><path class="cls-7" d="M1633.34,383.06s-49-10.13-25.67-54c0,0,12.83-23.65,43.23-20.94,0,0,17.22-27.7,51.67-13.51,0,0,41.2-50,88.83-2,0,0,28.7-30.06,56.73,13.85,0,0,106.39,16.55,26.69,76.66Z"/></g></g></svg>